<svg width="149" height="24" viewBox="0 0 149 24" fill="none" xmlns="http://www.w3.org/2000/svg">
<path d="M40.1107 1.68835L50.4093 18.1149L62.7407 5.00016L49.1898 6.32488" stroke="#894F24" stroke-width="2" stroke-linecap="round" stroke-linejoin="round"/>
<path d="M67.1807 23.9375C62.6814 23.9375 59.9553 21.0138 59.9553 16.6929C59.9553 12.372 62.6814 9.44833 67.1807 9.44833C71.68 9.44833 74.4061 12.372 74.4061 16.6929C74.4061 21.0138 71.68 23.9375 67.1807 23.9375ZM67.2072 20.6515C68.901 20.6515 69.8538 19.0215 69.8538 16.667C69.8538 14.3125 68.901 12.6825 67.2072 12.6825C65.4604 12.6825 64.5076 14.3125 64.5076 16.667C64.5076 19.0215 65.4604 20.6515 67.2072 20.6515Z" fill="#894F24"/>
<path d="M26.586 19.0771H47.6805C49.4058 19.0771 51.0606 18.408 52.2807 17.2171C53.5006 16.0262 54.186 14.411 54.186 12.7268V12.5985C54.186 10.9143 53.5006 9.29909 52.2807 8.10816C51.0606 6.91726 49.4058 6.2482 47.6805 6.2482H20.0145V12.6626C20.0145 14.3638 20.7069 15.9954 21.9393 17.1983C23.1717 18.4013 24.8431 19.0771 26.586 19.0771Z" fill="#894F24" stroke="#894F24" stroke-width="2"/>
<path d="M33.8212 22.6429C37.2357 22.6429 40.0456 19.9347 40.0456 16.5434C40.0456 13.1521 37.2357 10.4439 33.8212 10.4439C30.4066 10.4439 27.5967 13.1521 27.5967 16.5434C27.5967 19.9347 30.4066 22.6429 33.8212 22.6429Z" fill="#894F24" stroke="white" stroke-width="2"/>
<path d="M57.5913 1.026H61.5211L67.2125 16.9227" stroke="#894F24" stroke-width="2" stroke-linecap="round" stroke-linejoin="round"/>
<path d="M62.7407 5.00015H66.8059" stroke="#894F24" stroke-width="2" stroke-linecap="round" stroke-linejoin="round"/>
<path d="M147.796 12.8378V9.62948H145.176V6.2659H140.73V9.62948H138.798V12.8378H140.73V19.7719C140.703 22.618 142.609 23.8857 145.758 23.8857C146.817 23.8857 147.558 23.7823 147.982 23.7305V20.3928C147.479 20.4187 146.764 20.4705 146.393 20.4446C145.626 20.4187 145.176 20.16 145.176 19.2803V12.8378H147.796Z" fill="#3DACDC"/>
<path fill-rule="evenodd" clip-rule="evenodd" d="M131.512 23.9375C127.013 23.9375 124.26 21.1949 124.26 16.7188C124.26 12.372 127.039 9.44833 131.353 9.44833C135.376 9.44833 138.287 11.958 138.287 16.6153V17.7279H128.653V17.8055C128.653 19.6166 129.791 20.7809 131.591 20.7809C132.809 20.7809 133.709 20.2634 134.079 19.4355H138.234C137.705 22.1781 135.244 23.9375 131.512 23.9375ZM134.132 15.1664H128.653C128.719 13.7045 129.871 12.6049 131.459 12.6049C132.994 12.6049 134.105 13.6657 134.132 15.1664Z" fill="#80BC27"/>
<path d="M101.385 9.62945V23.6787H105.858V15.3475C105.858 13.9244 106.705 12.993 107.949 12.993C109.14 12.993 109.961 13.821 109.961 15.1405V23.6787H114.248V15.244C114.248 13.8986 115.016 12.993 116.313 12.993C117.504 12.993 118.351 13.7692 118.351 15.1923V23.6787H122.823V14.209C122.823 11.2336 120.944 9.44833 118.245 9.44833C116.127 9.44833 114.46 10.535 113.904 12.1909H113.745C113.375 10.5091 111.84 9.44833 109.855 9.44833C107.87 9.44833 106.388 10.4833 105.779 12.1909H105.62V9.62945H101.385Z" fill="#FAC000"/>
<path d="M91.2678 9.62946V23.6787H95.7406V15.9943C95.7406 14.3125 96.9581 13.1741 98.6254 13.1741C99.1812 13.1741 99.9753 13.2517 100.399 13.3811V9.57769C100.028 9.50008 99.5517 9.42245 99.1284 9.42245C97.5402 9.42245 96.2699 10.328 95.7406 12.1651H95.6084V9.62946H91.2678Z" fill="#E94B22"/>
<path d="M84.7495 9.62946V17.6243C84.7495 19.3061 83.6381 20.2376 82.2616 20.2376C80.8325 20.2376 79.959 19.2802 79.959 17.7537V9.62946H75.4861V18.5817C75.4861 21.79 77.4713 23.8599 80.4091 23.8599C82.5792 23.8599 84.1674 22.7732 84.8024 21.0914H84.9612V23.6787H89.1958V9.62946H84.7495Z" fill="#894F24"/>
<path d="M12.9697 11.0525C12.5198 9.47422 11.2229 8.56866 9.34378 8.56866C6.53831 8.56866 4.73859 10.6385 4.73859 14.2867C4.73859 17.9607 6.43245 20.0565 9.34378 20.0565C11.8978 20.0565 13.3402 18.7499 13.3932 16.7188H9.52905V13.4846H17.7337V15.9426C17.7337 20.9362 14.2136 23.9375 9.3173 23.9375C3.83873 23.9375 0.133392 20.2635 0.133392 14.3384C0.133392 8.20643 4.1563 4.68762 9.23789 4.68762C13.6578 4.68762 17.072 7.32671 17.5484 11.0525H12.9697Z" fill="#894F24"/>
</svg>
